# xmcd
#
# Track frame offsets:
#	150
#	21328
#	37986
#	53259
#	74117
#	89792
#	102245
#	115836
#	139268
#
# Disc length: 2157 seconds
# Revision: 0
# Processed by: cddbd v1.5.2PL0 Copyright (c) Steve Scherf et al.
# Submitted via: dBpowerAMP V12.0
#
DISCID=7d086b09
DTITLE=Bob Sumner - Sings Wasted Love Songs
DYEAR=2019
DGENRE=Americana
TTITLE0=Riverbed
TTITLE1=All Your Dead Things
TTITLE2=A Thousand Horses
TTITLE3=New York City
TTITLE4=Comin' Around
TTITLE5=Worn Down Boy
TTITLE6=Rosalee
TTITLE7=My Old Friend
TTITLE8=Ticket to Ride
EXTD=
EXTT0=
EXTT1=
EXTT2=
EXTT3=
EXTT4=
EXTT5=
EXTT6=
EXTT7=
EXTT8=
PLAYORDER=
